<svg xmlns="http://www.w3.org/2000/svg" width="32" height="32"><g transform="translate(419 -1347.362)"><path style="isolation:auto;mix-blend-mode:normal" fill="#00e4ff" d="M-396.904 1357.862h7.404v15h-20v-15h3.469" color="#000" overflow="visible"/><path style="isolation:auto;mix-blend-mode:normal" fill="none" d="M-396.904 1357.862h7.404v15h-24v-15h7.469" color="#000" overflow="visible"/><path style="isolation:auto;mix-blend-mode:normal" fill="none" stroke="#000" stroke-linecap="square" stroke-linejoin="round" stroke-miterlimit="0" d="M-387.5 1372.862c0 1.108-.999 2-2.24 2h-23.52c-1.241 0-2.24-.892-2.24-2z" color="#000" overflow="visible"/><path style="isolation:auto;mix-blend-mode:normal" fill="#fff" d="M-413.5 1357.862v15h1.5v-15h-1.5z" color="#000" overflow="visible"/><path style="isolation:auto;mix-blend-mode:normal" fill="#00a5ff" d="M-389.5 1372.862v-15h-20v2h17c.554 0 1 .446 1 1v12z" color="#000" overflow="visible"/><path style="isolation:auto;mix-blend-mode:normal" fill="#fff" d="M-410 1372.862h20.5v-2H-410z" color="#000" overflow="visible"/><path style="isolation:auto;mix-blend-mode:normal" fill="none" stroke="#000" stroke-linecap="round" stroke-linejoin="round" stroke-miterlimit="0" d="M-389.5 1366.362v-1m0-2v-5.5h-16.596m16.596 15v-4.5" color="#000" overflow="visible"/><path style="isolation:auto;mix-blend-mode:normal" fill="#f4606e" d="M-387.5 1372.862c0 1.108-.999 2-2.24 2h-23.52c-1.241 0-2.24-.892-2.24-2z" color="#000" overflow="visible"/><path style="isolation:auto;mix-blend-mode:normal" fill="#fff" d="M-415.5 1372.862c0 1.108 1 2 2.24 2h1.5c-1.24 0-2.24-.892-2.24-2h-1.5z" color="#000" overflow="visible"/><path style="isolation:auto;mix-blend-mode:normal" fill="#f89963" d="M-387.5 1372.862c0 1.108-1 2-2.24 2h-1.5c1.24 0 2.24-.892 2.24-2h1.5z" color="#000" overflow="visible"/><path style="isolation:auto;mix-blend-mode:normal" fill="none" stroke="#000" stroke-linecap="square" stroke-linejoin="round" stroke-miterlimit="0" d="M-387.5 1372.862c0 1.108-.999 2-2.24 2h-23.52c-1.241 0-2.24-.892-2.24-2z" color="#000" overflow="visible"/><path fill="#f8e71b" fill-rule="evenodd" d="M-411.5 1361.362v4l3 3 3-4v-3"/><path fill="#fff" fill-rule="evenodd" d="M-411.5 1361.362v4l3 3 .643-.857s-2.143-2.143-2.143-2.743v-3.4z"/><path fill="#fd5b6a" fill-rule="evenodd" d="m-405.513 1364.614 5.258 2.938a3.354 3.354 0 0 1 1.734 2.923v4.387H-418.5v-4.293c0-1.266.694-2.436 1.819-3.064l5.174-2.891 2.919 3.66z"/><path fill="none" stroke="#fe2b70" d="M-407.5 1375.282v-7.92"/><path fill="none" stroke="#000" d="M-414.975 1374.64v-3.188m12.932 3.188v-3.188"/><ellipse cx="-406.158" cy="1370.739" rx=".601" ry=".587"/><ellipse cx="-406.158" cy="1373.088" rx=".588" ry=".575"/><path fill="#fff" fill-rule="evenodd" d="m-411.508 1364.614-5.174 2.89a3.516 3.516 0 0 0-1.818 3.065v4.293h1.5v-2.793c0-1.266.694-2.436 1.818-3.064l4.965-2.774z"/><path fill="none" stroke="#000" d="M-408.5 1375.294v-6.775m-.01 6.763v-6.76"/><path fill="#fe2b70" fill-rule="evenodd" d="m-405.514 1364.614-1.33 1.582 5.11 2.855a3.352 3.352 0 0 1 1.734 2.922v2.889h1.479v-4.387a3.355 3.355 0 0 0-1.735-2.924z"/><path fill="#4bbfeb" fill-rule="evenodd" stroke="#000" d="m-408.51 1368.521 1.145-1.042 2.269 1.052c.395.175.833-.14.778-.561 0 0-1.061-3.24-.983-3.4-.504.776-.835 1.88-2.042 2.885"/><path fill="#4bbfeb" fill-rule="evenodd" stroke="#000" d="m-408.5 1368.52-1.096-1.044-2.171 1.054c-.378.175-.797-.142-.745-.563l.94-3.406c.34 1.043 1.139 2.091 1.954 2.936"/><path fill="none" stroke="#000" d="M-405.513 1361.866v2.748l5.258 2.938a3.354 3.354 0 0 1 1.734 2.923v4.387H-418.5v-4.293c0-1.266.694-2.436 1.819-3.064l5.174-2.891v-2.748"/><path fill="#f8e71b" d="M-410.338 1352.402c-1.267 0-2.286.98-2.286 2.199v1.954l.002.025-.002.025v2.637c0 2.192 1.836 3.958 4.115 3.958s4.115-1.766 4.115-3.958v-2.637l-.002-.025.002-.025v-2.863c-.187-1.361-.877-2.332-2.29-2.326-.044.637-.748.997-1.375 1.036z"/><path fill="#fff" d="M-406.684 1351.366c-.043.636-.747.997-1.375 1.037h1.623c.442-.028.91-.223 1.17-.553-.356-.305-.817-.487-1.418-.484zm-3.654 1.037c-1.266 0-2.285.98-2.285 2.197v1.955l.002.024-.002.025v2.637c0 2.192 1.834 3.959 4.113 3.959.278 0 .55-.028.813-.078-1.888-.361-3.303-1.956-3.303-3.881v-2.637l.002-.025-.002-.024v-1.955c0-1.217 1.019-2.197 2.285-2.197h-1.623z"/><path fill="#01d1ff" fill-rule="evenodd" d="M-406.356 1351.86c-.126.201-.335.54-.519.664-.35.236-.755.352-1.152.377h-2.311c-1.008 0-1.785.76-1.785 1.7v1.952c0-.044.002-.065.002.026 0 .066-.002.087-.002.023v.483l1.611-.897 5.618 1.03v-.616c0 .044-.002.058-.002-.025 0-.065.002-.084.002-.022v-2.804c-.086-.609-.278-1.09-.557-1.399-.242-.268-.446-.454-.905-.493z"/><path fill="#01d1ff" fill-rule="evenodd" d="M-406.355 1351.86c-.127.202-.336.54-.52.664-.35.236-.755.352-1.152.377h-2.311c-1.008 0-1.785.76-1.785 1.7v1.952c0-.044.002-.065.002.026 0 .066-.002.087-.002.023v.155a4.803 4.803 0 0 0 .957-.848c.135-.156.212-.325.191-.252a.5.5 0 0 1 .5-.37v-.001a.5.5 0 0 1 .413.246c.288.49.624.694 1.064.812.44.12.988.118 1.566.094.579-.024 1.183-.07 1.776.037.26.047.518.142.762.276v-.149c0 .044-.002.058-.002-.025 0-.065.002-.084.002-.022v-2.804c-.086-.609-.278-1.09-.557-1.399-.242-.268-.446-.453-.904-.492z"/><path fill="#fff" fill-rule="evenodd" d="M-406.355 1351.86c-.127.202-.336.54-.52.664-.35.236-.755.352-1.152.377h1.123a2.324 2.324 0 0 0 1.152-.377c.073-.049.15-.145.225-.24-.213-.225-.417-.389-.828-.424zm-3.983 1.041c-1.008 0-1.785.76-1.785 1.7v1.952c0-.044.002-.065.002.026 0 .066-.002.087-.002.023v.155a4.803 4.803 0 0 0 .957-.848c.117-.136.162-.23.166-.219v-1.09c0-.939.777-1.699 1.785-1.699h-1.123zm.965 2.385a.5.5 0 0 0-.479.37c.007-.023-.05.064-.062.083a1.6 1.6 0 0 0 .916.605c.44.12.988.118 1.566.094.06-.002.122-.003.182-.006a3.27 3.27 0 0 1-.625-.086c-.44-.119-.776-.323-1.064-.812a.5.5 0 0 0-.413-.246.5.5 0 0 0-.021-.002zm3.947 1.123c-.252 0-.503.016-.75.027.174.01.347.008.52.04.26.046.518.141.761.275v-.149c0 .044-.002.058-.002-.025.001-.065.002-.084.002-.022v-.105c-.177-.016-.354-.042-.53-.041z"/><path fill="#00a5ff" fill-rule="evenodd" d="M-406.355 1351.86c-.075.12-.18.274-.29.416.028.03.06.047.088.078.279.308.472.79.557 1.399v2.697c.115.01.23.005.344.025.26.047.518.142.761.276v-.149c0 .044-.002.058-.002-.025.001-.065.002-.084.002-.022v-2.804c-.085-.609-.278-1.09-.556-1.399-.242-.268-.446-.453-.904-.492zm-1.3 4.549c-.232 0-.462.015-.69.025.288.017.593.017.913.004.036 0 .074-.002.11-.004-.111-.005-.222-.026-.332-.025z"/><path fill="none" stroke="#000" d="M-410.338 1352.402c-1.267 0-2.286.98-2.286 2.199v1.954l.002.025-.002.025v2.637c0 2.192 1.836 3.958 4.115 3.958s4.115-1.766 4.115-3.958v-2.637l-.002-.025.002-.025v-2.863c-.187-1.361-.877-2.332-2.29-2.326-.044.637-.748.997-1.375 1.036z"/><path fill="none" stroke="#000" stroke-linecap="round" stroke-linejoin="round" d="M-412.503 1357.49c.496 0 1.892-1.27 2.01-1.702 1.409 2.385 4.817.025 5.97 1.977"/></g></svg>