<svg xmlns="http://www.w3.org/2000/svg" viewBox="0 0 24 24"><path fill="#F47920" d="M21.613 11H15.71c.15-.317.26-.616.315-.86.867-.6 1-2.86 1-2.887 0-.379-.132-.9-.454-1.23a3.5 3.5 0 0 0 .446-1.492l.484-.43v-.225C17.5 2.012 15.488 0 12.238 0 10.411 0 9.502.574 9.16.866c-.869.158-2.182 1.18-2.182 2.589l-.003.411c-.008.943.002 1.602.092 2.054-.403.317-.566.912-.566 1.333 0 .027.133 2.287.999 2.887.056.244.165.543.315.86H2.401A2.4 2.4 0 0 0 0 13.401c0 .072.013.144.02.216l.807 8.573A2 2 0 0 0 2.818 24h18.363a2 2 0 0 0 1.991-1.81l.817-8.577A2.387 2.387 0 0 0 21.613 11z"/><g fill="#FFF"><path d="M21.613 11H2.401A2.4 2.4 0 0 0 0 13.401c0 .072.013.144.02.216l.807 8.573A2 2 0 0 0 2.818 24h18.363a2 2 0 0 0 1.991-1.81l.817-8.577A2.387 2.387 0 0 0 21.613 11zm-9.36 5.265a.885.885 0 0 1 .563-.265.73.73 0 0 1-.198.559c-.134.148-.353.263-.567.248-.03-.201.079-.41.202-.542zm1.018 2.826c-.15.2-.306.4-.55.405-.242.004-.32-.13-.594-.13-.275 0-.361.126-.59.134-.236.008-.416-.217-.567-.417-.309-.409-.545-1.156-.228-1.66a.894.894 0 0 1 .744-.412c.232-.005.452.143.593.143.142 0 .409-.177.689-.151.117.004.446.043.657.326-.017.01-.392.21-.388.627.005.499.477.665.482.666-.004.012-.075.237-.248.47z" opacity=".4"/><path d="M13.037 17.956c-.004-.416.371-.617.388-.627-.21-.283-.54-.322-.657-.326-.28-.026-.547.15-.689.15-.141 0-.36-.147-.593-.142a.894.894 0 0 0-.744.412c-.317.504-.08 1.251.228 1.66.151.2.331.425.568.417.228-.008.314-.135.589-.135.275 0 .352.135.593.13.245-.003.4-.203.55-.404.174-.232.245-.457.25-.469-.006-.001-.478-.167-.483-.666zM12.618 16.559a.73.73 0 0 0 .198-.559.885.885 0 0 0-.563.265c-.123.131-.232.34-.202.542.214.015.433-.1.567-.248z" opacity=".8"/></g></svg>